<svg xmlns="http://www.w3.org/2000/svg" width="1200" height="630" viewBox="0 0 1200 630">
  <defs>
    <linearGradient id="bg2" x1="0%" y1="0%" x2="100%" y2="100%">
      <stop offset="0%" style="stop-color:#1a0a2e"/>
      <stop offset="50%" style="stop-color:#2d1b69"/>
      <stop offset="100%" style="stop-color:#0f172a"/>
    </linearGradient>
    <linearGradient id="accent2" x1="0%" y1="0%" x2="100%" y2="0%">
      <stop offset="0%" style="stop-color:#a855f7"/>
      <stop offset="100%" style="stop-color:#ec4899"/>
    </linearGradient>
    <linearGradient id="accent2b" x1="0%" y1="0%" x2="0%" y2="100%">
      <stop offset="0%" style="stop-color:#a855f7;stop-opacity:0.3"/>
      <stop offset="100%" style="stop-color:#ec4899;stop-opacity:0"/>
    </linearGradient>
  </defs>
  <rect width="1200" height="630" fill="url(#bg2)"/>
  <circle cx="850" cy="300" r="180" fill="none" stroke="url(#accent2)" stroke-width="1.5" opacity="0.3"/>
  <circle cx="850" cy="300" r="130" fill="none" stroke="rgba(168,85,247,0.2)" stroke-width="1"/>
  <circle cx="850" cy="300" r="80" fill="rgba(168,85,247,0.06)"/>
  <rect x="740" y="180" width="60" height="60" rx="8" fill="rgba(236,72,153,0.15)" transform="rotate(15,770,210)"/>
  <rect x="920" y="220" width="80" height="80" rx="10" fill="rgba(168,85,247,0.12)" transform="rotate(-10,960,260)"/>
  <rect x="800" y="380" width="50" height="50" rx="6" fill="rgba(6,182,212,0.1)" transform="rotate(25,825,405)"/>
  <rect x="980" y="150" width="40" height="40" rx="5" fill="rgba(236,72,153,0.1)" transform="rotate(-20,1000,170)"/>
  <path d="M700 420 Q 800 380, 950 400 T 1150 370" fill="none" stroke="url(#accent2)" stroke-width="3" opacity="0.2"/>
  <path d="M680 460 Q 800 430, 900 450 T 1100 420" fill="none" stroke="rgba(236,72,153,0.15)" stroke-width="2"/>
  <circle cx="850" cy="300" r="250" fill="url(#accent2b)"/>
  <text x="100" y="240" font-family="system-ui,sans-serif" font-size="18" fill="#a855f7" font-weight="600" letter-spacing="3">REVIEW 2026</text>
  <text x="100" y="300" font-family="system-ui,sans-serif" font-size="56" fill="white" font-weight="800">Midjourney</text>
  <text x="100" y="365" font-family="system-ui,sans-serif" font-size="56" fill="url(#accent2)" font-weight="800">v7</text>
  <text x="100" y="415" font-family="system-ui,sans-serif" font-size="18" fill="#94a3b8">So gut ist die neue Version wirklich</text>
  <text x="100" y="475" font-family="system-ui" font-size="24" fill="#f59e0b">&#9733;&#9733;&#9733;&#9733;&#9734;</text>
  <text x="230" y="475" font-family="system-ui" font-size="18" fill="#94a3b8">4 / 5</text>
</svg>
