<svg xmlns="http://www.w3.org/2000/svg" width="1200" height="630" viewBox="0 0 1200 630">
  <defs>
    <linearGradient id="bg3" x1="0%" y1="0%" x2="100%" y2="100%">
      <stop offset="0%" style="stop-color:#0c1220"/>
      <stop offset="50%" style="stop-color:#1a2332"/>
      <stop offset="100%" style="stop-color:#0f172a"/>
    </linearGradient>
    <linearGradient id="accent3" x1="0%" y1="0%" x2="100%" y2="0%">
      <stop offset="0%" style="stop-color:#10b981"/>
      <stop offset="100%" style="stop-color:#06b6d4"/>
    </linearGradient>
  </defs>
  <rect width="1200" height="630" fill="url(#bg3)"/>
  <rect x="700" y="130" width="400" height="360" rx="12" fill="rgba(255,255,255,0.04)" stroke="rgba(255,255,255,0.08)" stroke-width="1"/>
  <rect x="700" y="130" width="100" height="360" rx="12" fill="rgba(255,255,255,0.03)"/>
  <rect x="715" y="160" width="70" height="8" rx="4" fill="rgba(148,163,184,0.2)"/>
  <rect x="715" y="182" width="55" height="8" rx="4" fill="rgba(16,185,129,0.3)"/>
  <rect x="715" y="204" width="60" height="8" rx="4" fill="rgba(148,163,184,0.15)"/>
  <rect x="715" y="226" width="50" height="8" rx="4" fill="rgba(148,163,184,0.15)"/>
  <rect x="820" y="160" width="200" height="14" rx="7" fill="rgba(255,255,255,0.12)"/>
  <rect x="820" y="195" width="260" height="8" rx="4" fill="rgba(148,163,184,0.15)"/>
  <rect x="820" y="215" width="240" height="8" rx="4" fill="rgba(148,163,184,0.15)"/>
  <rect x="820" y="235" width="220" height="8" rx="4" fill="rgba(148,163,184,0.15)"/>
  <rect x="820" y="270" width="250" height="45" rx="8" fill="rgba(16,185,129,0.08)" stroke="rgba(16,185,129,0.2)" stroke-width="1"/>
  <text x="840" y="297" font-family="system-ui" font-size="12" fill="#10b981" font-weight="500">AI: Zusammenfassung generiert...</text>
  <rect x="820" y="335" width="180" height="8" rx="4" fill="rgba(148,163,184,0.15)"/>
  <rect x="820" y="355" width="240" height="8" rx="4" fill="rgba(148,163,184,0.15)"/>
  <rect x="820" y="405" width="75" height="55" rx="6" fill="rgba(16,185,129,0.1)" stroke="rgba(16,185,129,0.15)" stroke-width="1"/>
  <rect x="905" y="405" width="75" height="55" rx="6" fill="rgba(6,182,212,0.1)" stroke="rgba(6,182,212,0.15)" stroke-width="1"/>
  <rect x="990" y="405" width="75" height="55" rx="6" fill="rgba(99,102,241,0.1)" stroke="rgba(99,102,241,0.15)" stroke-width="1"/>
  <circle cx="950" cy="300" r="200" fill="rgba(16,185,129,0.04)"/>
  <text x="100" y="250" font-family="system-ui,sans-serif" font-size="18" fill="#10b981" font-weight="600" letter-spacing="3">REVIEW 2026</text>
  <text x="100" y="310" font-family="system-ui,sans-serif" font-size="56" fill="white" font-weight="800">Notion</text>
  <text x="100" y="375" font-family="system-ui,sans-serif" font-size="56" fill="url(#accent3)" font-weight="800">AI</text>
  <text x="100" y="425" font-family="system-ui,sans-serif" font-size="18" fill="#94a3b8">Lohnt sich das AI-Upgrade?</text>
  <text x="100" y="485" font-family="system-ui" font-size="24" fill="#f59e0b">&#9733;&#9733;&#9733;&#9733;&#9734;</text>
  <text x="230" y="485" font-family="system-ui" font-size="18" fill="#94a3b8">4 / 5</text>
</svg>
